<?xml version="1.0" standalone="no"?>
<!DOCTYPE svg PUBLIC "-//W3C//DTD SVG 20010904//EN"
 "http://www.w3.org/TR/2001/REC-SVG-20010904/DTD/svg10.dtd">
<svg version="1.0" xmlns="http://www.w3.org/2000/svg"
 width="222.000000pt" height="227.000000pt" viewBox="0 0 222.000000 227.000000"
 preserveAspectRatio="xMidYMid meet">

<g transform="translate(0.000000,227.000000) scale(0.100000,-0.100000)"
fill="#000000" stroke="none">
<path d="M1290 2149 c0 -7 -20 -10 -52 -9 -29 2 -80 2 -113 1 -58 -1 -61 -2
-72 -31 -8 -21 -18 -30 -35 -30 -30 0 -42 -9 -59 -44 -21 -43 -42 -53 -81 -38
-46 17 -134 -11 -143 -45 -9 -36 -46 -46 -102 -27 -53 18 -89 11 -178 -33 -57
-29 -135 -102 -135 -127 0 -10 -5 -27 -11 -38 -6 -11 -7 -18 -2 -15 31 19 33
-11 33 -473 0 -256 0 -472 0 -480 0 -9 -9 -4 -24 15 -20 25 -27 28 -38 17 -11
-11 -10 -12 3 -7 15 6 27 -9 34 -40 5 -21 45 -80 45 -66 0 12 3 12 12 3 14
-14 20 -44 7 -36 -5 3 -6 10 -3 16 4 7 2 8 -4 4 -9 -5 -9 -13 -2 -27 6 -11 15
-17 20 -14 6 4 7 -1 3 -11 -5 -14 -2 -16 20 -10 16 4 31 1 40 -9 8 -8 18 -11
22 -7 5 4 5 2 1 -5 -16 -29 163 -182 272 -233 42 -19 55 -30 59 -52 11 -58
145 -145 265 -173 74 -17 282 -20 378 -4 36 5 104 19 153 30 71 17 87 24 87
40 0 13 -16 25 -52 41 -29 12 -82 37 -118 54 l-65 31 43 22 c32 16 47 19 61
11 43 -22 126 -5 115 24 -4 11 10 16 63 21 107 10 142 32 88 57 -14 6 -25 14
-25 17 0 3 39 26 86 50 72 37 85 47 82 66 -1 12 9 40 23 61 15 22 38 62 52 90
25 49 25 50 7 74 -16 21 -16 28 -5 61 12 32 11 38 -5 55 -34 36 -34 62 -1 93
24 22 34 45 45 97 8 38 29 113 45 168 51 162 40 283 -38 451 -55 117 -104 188
-193 281 -112 116 -145 123 -129 26 9 -58 -2 -140 -26 -185 -17 -35 -26 -29
-25 15 1 37 -40 108 -62 108 -8 0 -18 -10 -21 -21 -6 -19 -13 -12 -44 47 -48
92 -72 123 -95 124 -15 0 -17 -7 -14 -45 3 -43 -4 -57 -17 -35 -4 6 -36 33
-72 60 -63 48 -103 63 -103 39z m17 -304 c50 -9 112 -31 173 -61 77 -38 110
-62 176 -128 213 -213 261 -517 127 -794 -56 -113 -186 -243 -303 -299 -117
-57 -216 -77 -344 -70 -172 9 -304 67 -434 191 -317 301 -269 821 99 1062 153
100 323 134 506 99z m-913 -39 c-6 -15 -28 -16 -41 -1 -4 4 -3 5 4 1 6 -3 14
-2 18 4 9 15 25 12 19 -4z m-26 -1070 c7 -4 12 -2 12 5 0 7 2 10 5 7 3 -3 2
-15 -3 -28 -7 -19 -10 -20 -15 -7 -3 9 -13 14 -20 11 -8 -3 -17 1 -20 9 -5 15
19 17 41 3z"/>
<path d="M1063 1676 c-88 -22 -164 -66 -234 -135 -111 -111 -154 -222 -146
-380 5 -120 27 -185 92 -275 95 -134 240 -207 410 -207 143 0 251 45 352 146
155 155 193 383 97 582 -100 209 -344 324 -571 269z"/>
<path d="M300 1770 c-8 -26 -7 -41 2 -32 6 6 8 16 5 24 -3 7 -6 11 -7 8z"/>
<path d="M255 1700 c-10 -11 -14 -20 -9 -20 5 0 15 9 22 20 7 11 11 20 9 20
-2 0 -12 -9 -22 -20z"/>
<path d="M302 1648 c5 -15 28 -23 28 -10 0 5 -7 13 -16 16 -10 4 -14 1 -12 -6z"/>
<path d="M300 1371 c0 -5 5 -13 10 -16 6 -3 10 -2 10 4 0 5 -4 13 -10 16 -5 3
-10 2 -10 -4z"/>
<path d="M236 1193 c-6 -14 -5 -15 5 -6 7 7 10 15 7 18 -3 3 -9 -2 -12 -12z"/>
<path d="M290 1129 c0 -5 5 -7 10 -4 6 3 10 8 10 11 0 2 -4 4 -10 4 -5 0 -10
-5 -10 -11z"/>
<path d="M304 1087 c3 -10 6 -23 6 -28 0 -5 5 -9 10 -9 14 0 12 13 -6 36 -14
17 -15 17 -10 1z"/>
<path d="M301 974 c0 -11 3 -14 6 -6 3 7 2 16 -1 19 -3 4 -6 -2 -5 -13z"/>
<path d="M261 944 c0 -11 3 -14 6 -6 3 7 2 16 -1 19 -3 4 -6 -2 -5 -13z"/>
<path d="M304 894 c-1 -13 2 -21 7 -18 11 6 12 31 2 37 -5 3 -9 -6 -9 -19z"/>
</g>
</svg>
